<svg xmlns="http://www.w3.org/2000/svg" viewBox="0 0 500 500" xmlns:bx="https://boxy-svg.com">
  <defs>
    <bx:export>
      <bx:file format="svg" path="Adsız.svg"></bx:file>
    </bx:export>
  </defs>
  <g transform="matrix(0.080774, 0, 0, -0.081876, -161.618607, 669.075012)" fill="#000000"
    stroke="none" style="">
    <path
      d="M5030 8168 c-87 -8 -214 -50 -297 -99 -32 -19 -97 -73 -144 -120
-101 -100 -155 -198 -190 -339 -41 -162 -15 -353 68 -513 63 -119 221 -267
341 -316 l32 -13 0 -607 0 -607 123 -122 c90 -89 130 -122 148 -122 18 0 57
33 147 123 l122 122 0 74 0 73 -70 67 c-38 36 -70 74 -70 84 0 9 32 48 70 86
69 68 70 69 70 122 0 54 0 54 -70 119 -38 36 -70 72 -70 79 0 8 32 47 70 87
l70 72 0 173 1 174 68 33 c185 89 335 281 377 485 18 82 20 241 5 307 -16 72
-49 160 -78 209 -151 260 -420 398 -723 369z m171 -298 c42 -12 123 -79 145
-121 45 -87 36 -208 -20 -281 -50 -66 -112 -100 -196 -106 -64 -4 -76 -2 -135
27 -97 48 -145 128 -145 240 1 140 113 251 254 251 34 0 77 -5 97 -10z"></path>
    <path
      d="M3980 7393 c-80 -7 -262 -36 -362 -59 -350 -79 -610 -236 -789 -474
-57 -76 -143 -257 -174 -365 -52 -181 -60 -250 -60 -535 0 -286 11 -383 61
-542 l24 -77 -24 -123 c-14 -68 -26 -139 -28 -158 -3 -32 -9 -38 -76 -75 -235
-130 -419 -356 -519 -641 l-28 -79 -3 -360 c-3 -247 0 -376 8 -412 17 -80 97
-193 229 -323 235 -234 529 -441 880 -619 509 -258 1024 -413 1576 -473 178
-19 652 -17 845 5 626 70 1259 286 1810 617 389 234 726 538 816 735 l25 54
-3 398 -3 398 -29 75 c-67 177 -148 309 -270 437 -77 82 -204 176 -278 207
-21 8 -38 19 -38 23 0 25 -41 255 -50 277 -8 21 -4 46 15 114 43 146 56 247
62 462 8 291 -13 458 -83 670 -139 418 -461 677 -988 794 -124 28 -359 56
-464 56 l-70 0 -12 -81 c-29 -202 -91 -326 -239 -483 -42 -44 -67 -76 -56 -71
93 38 163 49 335 49 277 0 484 -40 665 -128 242 -119 335 -325 336 -740 0
-274 -43 -431 -142 -520 -96 -86 -239 -120 -509 -120 -142 -1 -205 3 -269 17
-311 67 -474 228 -566 561 l-16 59 -40 -39 c-21 -21 -39 -42 -39 -46 0 -4 20
-28 45 -52 l45 -45 0 -128 0 -128 -145 -145 c-80 -80 -145 -149 -145 -154 0
-5 26 -38 58 -74 156 -179 408 -316 680 -372 311 -63 714 -43 976 49 32 11 62
18 67 15 5 -3 9 -364 9 -830 l0 -824 -47 -31 c-131 -85 -473 -233 -733 -318
-506 -166 -1006 -227 -1475 -181 -494 49 -1121 249 -1538 492 l-67 39 2 824
c2 453 6 826 9 829 3 3 29 -3 59 -14 208 -76 499 -105 789 -80 365 33 667 168
880 396 39 42 71 80 71 84 0 5 -56 61 -125 126 -69 64 -134 132 -145 149 -18
30 -20 52 -21 271 -1 132 -3 230 -6 219 -27 -120 -52 -197 -95 -285 -43 -90
-62 -117 -132 -185 -121 -121 -237 -169 -467 -196 -135 -15 -356 -5 -468 21
-256 61 -335 187 -348 555 -17 476 90 709 382 828 218 89 635 132 845 87 129
-28 228 -107 269 -213 l20 -52 0 72 1 71 -72 48 c-141 94 -263 240 -320 386
-23 57 -47 152 -63 251 l-6 38 -107 -3 c-59 -1 -123 -4 -142 -5z"></path>
    <path
      d="M4313 4324 c-57 -21 -123 -82 -153 -140 l-25 -49 0 -365 c0 -360 0
-366 23 -407 30 -58 86 -111 141 -137 57 -26 186 -28 242 -4 50 22 105 73 137
127 l27 46 3 353 c3 397 1 415 -64 491 -59 69 -114 94 -208 98 -55 2 -95 -2
-123 -13z"></path>
    <path
      d="M5674 4320 c-63 -25 -116 -75 -152 -143 l-27 -52 0 -350 c0 -347 0
-351 24 -402 26 -59 91 -124 148 -149 57 -26 185 -24 243 3 56 25 113 82 142
142 23 45 23 52 23 401 0 353 0 355 -24 400 -30 58 -86 116 -136 143 -59 30
-174 34 -241 7z"></path>
  </g>
</svg>